<svg width="28" height="28" viewBox="0 0 28 28" fill="d22527" xmlns="http://www.w3.org/2000/svg">
<g clip-path="url(#clip0_72_13)">
<path d="M14 23.4542C14.4096 23.4542 14.7428 23.7874 14.7428 24.1969V26.4765C21.0759 26.1005 26.1032 21.0758 26.4824 14.7429H24.2029C23.79 14.7429 23.4542 14.4096 23.4542 14C23.4542 13.5904 23.7874 13.2572 24.1969 13.2572H26.4765C26.0976 6.92721 21.0729 1.90249 14.7428 1.52345V3.80306C14.7428 4.2127 14.4096 4.54584 14 4.54584C13.5904 4.54584 13.2572 4.2127 13.2572 3.80306V1.52345C6.92713 1.90249 1.90242 6.92721 1.52345 13.2572H3.80306C4.21263 13.2572 4.54584 13.5904 4.54584 14C4.54584 14.4096 4.21263 14.7429 3.80306 14.7429H1.52345C1.90242 21.0729 6.92713 26.0976 13.2572 26.4765V24.1969C13.2572 23.7874 13.5904 23.4542 14 23.4542ZM14 28C6.28039 28 0 21.7196 0 14C0 6.28039 6.28039 -1.09327e-06 14 -1.09327e-06C17.7376 0.004827 21.2514 1.46291 23.8943 4.10574C26.5371 6.74849 27.9952 10.2623 28 13.9998C28 21.7195 21.7196 28 14 28Z" fill="#d22527"/>
<path d="M13.9999 23.5285C14.3686 23.5285 14.6684 23.8284 14.6684 24.197V26.5552C21.1213 26.2117 26.2143 21.1212 26.561 14.6686H24.2028C23.8282 14.6686 23.5284 14.3688 23.5284 14.0001C23.5284 13.6315 23.8282 13.3316 24.1969 13.3316H26.5551C26.2086 6.88188 21.1183 1.79136 14.6684 1.44492V3.80312C14.6684 4.17176 14.3686 4.47162 13.9999 4.47162C13.6314 4.47162 13.3314 4.17176 13.3314 3.80312V1.44492C6.88169 1.79136 1.79124 6.88188 1.4448 13.3316H3.803C4.17164 13.3316 4.4715 13.6315 4.4715 14.0001C4.4715 14.3688 4.17164 14.6686 3.803 14.6686H1.4448C1.79124 21.1184 6.88169 26.2088 13.3314 26.5552V24.197C13.3314 23.8284 13.6314 23.5285 13.9999 23.5285ZM13.9999 27.9258C6.32126 27.9258 0.0742188 21.6787 0.0742188 14.0001C0.0742188 6.32138 6.32126 0.074337 13.9999 0.074337C17.7177 0.0790909 21.2129 1.52953 23.8418 4.15831C26.4705 6.7871 27.9209 10.2823 27.9257 14C27.9257 21.6787 21.6785 27.9258 13.9999 27.9258Z" fill="#d22527"/>
<path d="M19.8439 20.6855C19.6424 20.6855 19.4537 20.6063 19.3128 20.4622L13.4717 14.5202C13.3341 14.3814 13.2577 14.1969 13.2568 14.0007V7.76073C13.2568 7.35109 13.59 7.01795 13.9996 7.01795C14.4092 7.01795 14.7424 7.35109 14.7424 7.76073V13.6957L20.3746 19.4222C20.5137 19.5642 20.589 19.7517 20.5869 19.9503C20.5849 20.1487 20.5055 20.3345 20.3637 20.4735C20.224 20.6102 20.0394 20.6855 19.8439 20.6855Z" fill="#d22527"/>
<path d="M19.8443 20.6108C19.663 20.6108 19.4932 20.5395 19.3663 20.4098L13.5251 14.4677C13.4011 14.3426 13.3324 14.1765 13.3315 14V7.76029C13.3315 7.39165 13.6314 7.09179 14 7.09179C14.3687 7.09179 14.6686 7.39165 14.6686 7.76029V13.7257L20.3221 19.4739C20.4472 19.6017 20.5149 19.7704 20.5131 19.949C20.5112 20.1277 20.4398 20.2949 20.3122 20.4199C20.1864 20.543 20.0202 20.6108 19.8444 20.6108H19.8443Z" fill="#d22527"/>
</g>
<defs>
<clipPath id="clip0_72_13">
<rect width="28" height="28" fill="d22527"/>
</clipPath>
</defs>
</svg>
