<svg width="128" height="103" viewBox="0 0 128 103" fill="none" xmlns="http://www.w3.org/2000/svg">
<path d="M33.25 6.625C33.7917 6.70833 34.4583 7.25 35.25 8.25L37.125 8.0625C42.1667 8.0625 45.7917 10.9792 48 16.8125C48.5417 18.6458 48.8125 20.3125 48.8125 21.8125V22.375L48.9375 22.5625L48.8125 22.8125V23.5625C48.8125 27.2708 47.5625 30.9583 45.0625 34.625C49.1458 37.2083 51.1875 40.9375 51.1875 45.8125V47.1875C51.1875 52.3958 49.3333 57.3125 45.625 61.9375C44 63.5208 42.2917 64.3125 40.5 64.3125L37.625 63.75H37.4375L36.75 64.125H36C34.875 64.125 34.1458 62.7917 33.8125 60.125C32.7708 54.8333 32.25 48.875 32.25 42.25V38.6875L31.3125 36.5V36.375L32.25 34.625V29.25C32.25 20.5833 31.9375 13.5833 31.3125 8.25C31.6042 7.16667 32.25 6.625 33.25 6.625ZM35.4375 11.9375C35.8125 17.7292 36 24.0208 36 30.8125V35H37.625C40.875 35 43.2917 32.0417 44.875 26.125L45.0625 23.75V21.5625C45.0625 16.8542 43.2083 13.7083 39.5 12.125L37.125 11.6875H36.375L35.4375 11.9375ZM36.5625 38.6875H36V42.0625C36 53.7292 36.7917 59.5625 38.375 59.5625C38.875 60.2292 39.4583 60.5625 40.125 60.5625H40.9375C43.4375 60.5625 45.5417 56.9583 47.25 49.75L47.4375 46.1875C47.4375 41.4375 45.875 38.6875 42.75 37.9375H41.0625L36.5625 38.6875ZM58 6.625C58.625 6.66667 59.2083 7.1875 59.75 8.1875C59.4583 8.64583 59.2708 9.47917 59.1875 10.6875L59.125 11.5L59.5 36.125C59.2917 47.2917 59.4167 55.4792 59.875 60.6875L60 61.1875C59.625 61.9792 59.0208 62.3542 58.1875 62.3125C56.3125 62.1875 55.5625 59.6042 55.9375 54.5625C55.6875 51.8125 55.5625 39.1667 55.5625 16.625C55.3125 15.25 55.25 13.4375 55.375 11.1875V10.9375C55.5833 7.97917 56.4583 6.54167 58 6.625ZM75.5 41.0625L79.25 41.6875V41.5C80.1667 41.5 80.875 42.2292 81.375 43.6875L81.1875 47.625V50.375C81.1875 54.4167 81.7708 57.4375 82.9375 59.4375C82.6042 60.4792 81.9583 61 81 61C79.625 61 78.625 59.4167 78 56.25L77.875 55.25H77.3125C75.8125 58.7917 73.6875 61.1458 70.9375 62.3125L70 62.5625C66.4167 61.5625 64.625 58.9375 64.625 54.6875V54.3125C64.625 49.0208 67.1875 44.8125 72.3125 41.6875L75.5 41.0625ZM68.375 55.5C68.6667 57.5833 69.3333 58.625 70.375 58.625H70.5625C72.0208 58.625 74.3125 54.2292 77.4375 45.4375V45.25L75.625 44.875H75.5C72.1667 44.875 69.7917 47.75 68.375 53.5V55.5ZM96.9375 8.8125C97.4375 8.8125 97.9792 9.1875 98.5625 9.9375V14.625C98.5625 28.4583 99.6875 43.4375 101.938 59.5625L103.25 63.6875C102.958 64.7292 102.312 65.25 101.312 65.25C100.021 65.25 99.1042 63.6875 98.5625 60.5625H98.125C96.5833 61.9792 95.0625 62.6875 93.5625 62.6875C90.1458 62.6875 87.6042 60.4792 85.9375 56.0625C85.3958 54.6042 85.125 52.875 85.125 50.875C85.125 46.125 86.7083 42.8333 89.875 41L91.25 40.875H91.4375C92.6875 40.875 94.1875 41.4583 95.9375 42.625H96.1875V42.4375C95.2708 31.6875 94.8125 22.8958 94.8125 16.0625V11.875C94.8125 9.83333 95.5208 8.8125 96.9375 8.8125ZM88.875 50.6875V52.125C88.875 55.2083 90 57.4375 92.25 58.8125L93.5625 58.9375C95.5625 58.9375 96.5625 56.9792 96.5625 53.0625V51.3125C96.5625 47.7708 94.7292 45.5417 91.0625 44.625C89.6042 45.5 88.875 47.5208 88.875 50.6875ZM111.562 39.6875C113.896 39.6875 115.479 41.7917 116.312 46C115.229 50.7083 113 53.0625 109.625 53.0625H109.375V53.25C110.042 57.0417 111.812 58.9375 114.688 58.9375C116.896 58.9375 118.688 57.0417 120.062 53.25L121.438 52.6875C122.354 52.6875 122.938 53.3958 123.188 54.8125C123.188 57.3958 121.167 59.8333 117.125 62.125L114.125 62.6875C110.542 62.6875 107.854 60.125 106.062 55C105.562 52.9583 105.312 51.2708 105.312 49.9375V49.125C105.312 44.875 107.083 41.7917 110.625 39.875L111.562 39.6875ZM109.25 47.5625V47.6875L110.625 49.125C111.25 49.125 111.833 48.2708 112.375 46.5625V45.5625C112.167 44.2708 111.896 43.625 111.562 43.625H111.188C110.562 43.625 109.917 44.9375 109.25 47.5625Z" fill="white"/>
<path d="M14.875 37C18.625 37.3333 20.875 40.75 21.625 47.25V49.875C21.125 55.0833 18.5 60.3125 13.75 65.5625C14.6667 67.5208 16.5625 73.8125 19.4375 84.4375L24.6875 96.4375C24.1458 97.5625 23.4375 98.0625 22.5625 97.9375C21.4375 97.8958 19.6875 94.6667 17.3125 88.25C15.6875 85.0417 13.8958 79.125 11.9375 70.5C11.4375 69 11.0417 68.2292 10.75 68.1875L6.5625 70.375C6.64583 79.5 7.02083 88.1042 7.6875 96.1875C7.60417 96.8542 7.08333 97.4583 6.125 98L5.5 97.9375C4.33333 97.8542 3.75 96.5625 3.75 94.0625C2.625 71.2708 2.47917 55.2917 3.3125 46.125C2.47917 45.375 2.10417 44.625 2.1875 43.875C2.22917 43.5833 2.6875 43.0208 3.5625 42.1875C3.6875 40.4792 4.41667 39.7083 5.75 39.875L6.6875 40.3125C10.1875 37.8958 12.9167 36.7917 14.875 37ZM7.0625 44.6875C6.60417 53.8125 6.45833 60.9167 6.625 66L7.1875 66.0625C11.2708 64.1458 14.6667 59.6458 17.375 52.5625L17.8125 49.875L17.875 49.3125C18.25 45.5208 17.3958 42.6667 15.3125 40.75L14.3125 40.6875C12.8958 40.5625 10.4792 41.8958 7.0625 44.6875ZM40.6875 76.0625C42.0208 76.0625 42.6875 77.5208 42.6875 80.4375C42.6875 83.7708 42.9167 87.8125 43.375 92.5625C44.7083 93.1458 45.375 93.8542 45.375 94.6875V94.9375C45.375 95.9792 44.6667 96.625 43.25 96.875C42.3333 96.875 41.5417 96 40.875 94.25C39.125 96.5417 37.4167 97.6875 35.75 97.6875C32.0417 97.5625 29.6667 95.7083 28.625 92.125C28.25 88.125 28.0625 83.875 28.0625 79.375V78.1875C28.0625 76.7292 28.7292 76 30.0625 76C31.0208 76 31.6042 76.7917 31.8125 78.375V79.375C30.9792 89.2917 32.2917 94.0208 35.75 93.5625C38.0417 92.0208 39.2292 90 39.3125 87.5V85.75L38.5625 80.0625V79.4375C38.5625 77.1875 39.2708 76.0625 40.6875 76.0625ZM58.4375 74.875C62.6458 75.2083 64.3542 80.2708 63.5625 90.0625L63.0625 95.625C62.8125 97.125 62.0833 97.8333 60.875 97.75C59.75 97.6667 59.25 96.9167 59.375 95.5L59.8125 89.4375C60.3958 82.3125 59.7708 78.6875 57.9375 78.5625C55.9792 78.3958 54.5625 82.1042 53.6875 89.6875L53.9375 96.4375C53.8542 97.3125 53.1458 97.7708 51.8125 97.8125C50.2708 97.6875 49.6875 95.4792 50.0625 91.1875L48.5625 76.875C48.6458 75.9167 49.4167 75.3958 50.875 75.3125C51.75 75.3542 52.2708 76.2917 52.4375 78.125L52.6875 78.1875C54.5625 75.8542 56.4792 74.75 58.4375 74.875ZM78.4375 74.875C82.6458 75.2083 84.3542 80.2708 83.5625 90.0625L83.0625 95.625C82.8125 97.125 82.0833 97.8333 80.875 97.75C79.75 97.6667 79.25 96.9167 79.375 95.5L79.8125 89.4375C80.3958 82.3125 79.7708 78.6875 77.9375 78.5625C75.9792 78.3958 74.5625 82.1042 73.6875 89.6875L73.9375 96.4375C73.8542 97.3125 73.1458 97.7708 71.8125 97.8125C70.2708 97.6875 69.6875 95.4792 70.0625 91.1875L68.5625 76.875C68.6458 75.9167 69.4167 75.3958 70.875 75.3125C71.75 75.3542 72.2708 76.2917 72.4375 78.125L72.6875 78.1875C74.5625 75.8542 76.4792 74.75 78.4375 74.875ZM93.5625 74.6875C95.8958 74.6875 97.4792 76.7917 98.3125 81C97.2292 85.7083 95 88.0625 91.625 88.0625H91.375V88.25C92.0417 92.0417 93.8125 93.9375 96.6875 93.9375C98.8958 93.9375 100.688 92.0417 102.062 88.25L103.438 87.6875C104.354 87.6875 104.938 88.3958 105.188 89.8125C105.188 92.3958 103.167 94.8333 99.125 97.125L96.125 97.6875C92.5417 97.6875 89.8542 95.125 88.0625 90C87.5625 87.9583 87.3125 86.2708 87.3125 84.9375V84.125C87.3125 79.875 89.0833 76.7917 92.625 74.875L93.5625 74.6875ZM91.25 82.5625V82.6875L92.625 84.125C93.25 84.125 93.8333 83.2708 94.375 81.5625V80.5625C94.1667 79.2708 93.8958 78.625 93.5625 78.625H93.1875C92.5625 78.625 91.9167 79.9375 91.25 82.5625ZM108.562 71.875C109.688 71.875 110.542 73.2292 111.125 75.9375H111.312C112.896 74.0625 114.604 73.125 116.438 73.125C119.438 73.6667 120.938 74.6042 120.938 75.9375C120.562 77.1042 119.917 77.6875 119 77.6875L116.625 76.9375H116C113.542 77.3958 112.312 82.4583 112.312 92.125V95.0625C112.062 96.3542 111.479 97 110.562 97C109.229 97 108.562 96.2083 108.562 94.625V87.375C108.562 82.0417 107.896 77.375 106.562 73.375C106.896 72.375 107.562 71.875 108.562 71.875Z" fill="white"/>
</svg>
