<svg width="28" height="28" viewBox="0 0 28 28" fill="none" xmlns="http://www.w3.org/2000/svg">
<path d="M14.0001 7.2256C13.0039 7.2256 12.1937 8.0358 12.1937 9.03207C12.1937 10.0283 13.0039 10.8385 14.0001 10.8385C14.9964 10.8385 15.8066 10.0283 15.8066 9.03207C15.8066 8.0358 14.9964 7.2256 14.0001 7.2256ZM14.0001 12.645C12.008 12.645 10.3872 11.0242 10.3872 9.03207C10.3872 7.03999 12.008 5.41913 14.0001 5.41913C15.9922 5.41913 17.613 7.03999 17.613 9.03207C17.613 11.0242 15.9922 12.645 14.0001 12.645Z" fill="#F8C559"/>
<path d="M13.92 1.80622C11.969 1.80622 10.1341 2.56629 8.75397 3.94599C6.16939 6.5306 5.85236 11.3977 8.07565 14.3612L13.92 22.8001L19.744 14.3883C21.9831 11.4036 21.6701 6.53015 19.0855 3.94599C17.7054 2.56629 15.8705 1.80622 13.92 1.80622ZM6.60972 15.4175C3.90139 11.8069 4.30197 5.84279 7.47681 2.66881C9.19746 0.947695 11.4858 -0.00025115 13.92 -0.00025115C16.3542 -0.00025115 18.642 0.947695 20.3631 2.66926C23.538 5.84369 23.9336 11.8136 21.2095 15.4446L13.92 25.9741L6.60972 15.4175Z" fill="#F8C559"/>
<path d="M14 28C5.62619 28 0 26.2762 0 23.7096C0 21.7135 3.32658 20.0316 8.47497 19.4256C8.50929 19.4211 8.54677 19.4188 8.58335 19.4188C9.03948 19.4188 9.42381 19.762 9.47755 20.2168C9.53535 20.7118 9.18039 21.1611 8.68632 21.2194C3.60206 21.8182 1.80645 23.3678 1.80645 23.7096C1.80645 24.2881 5.60768 26.1935 14 26.1935C22.3928 26.1935 26.1935 24.2881 26.1935 23.7096C26.1935 23.3678 24.3975 21.8182 19.3137 21.2194C18.8201 21.1611 18.4651 20.7118 18.5225 20.2177C18.5757 19.762 18.9605 19.4193 19.4175 19.4193C19.4532 19.4193 19.4898 19.4211 19.5264 19.4256C24.6734 20.0316 28 21.7135 28 23.7096C28 26.2762 22.3738 28 14 28Z" fill="#F8C559"/>
</svg>
