<svg width="26" height="26" viewBox="0 0 26 26" fill="none" xmlns="http://www.w3.org/2000/svg">
<path d="M24.7372 3.39431L21.3303 0L14.2548 7.06188L16.9978 9.89396C16.5381 10.7098 15.5406 12.2726 13.8408 13.9719C12.1408 15.6716 10.5661 16.6801 9.74235 17.1468L6.96507 14.4058L0 21.3275L3.38835 24.7376C4.68361 26.0325 6.65441 26.3681 8.29245 25.5727C10.7921 24.359 14.5645 22.1194 18.3415 18.3435C22.1187 14.5675 24.3586 10.796 25.5726 8.29708C25.8603 7.70492 26 7.06944 26 6.43804C26 5.32309 25.5641 4.22102 24.7372 3.39431ZM23.7466 7.41028C22.6006 9.76916 20.4836 13.3317 16.9061 16.9083C13.3286 20.4848 9.76497 22.6013 7.4055 23.7469C6.5453 24.1647 5.50786 23.986 4.82641 23.3047L2.8707 21.3365L6.97015 17.2627L9.33609 19.5978L9.96909 19.3161C10.072 19.2704 12.5202 18.1627 15.2766 15.407C18.0348 12.6495 19.1196 10.2227 19.1644 10.1207L19.4389 9.49635L17.1043 7.08595L21.3317 2.86654L23.3028 4.83025C23.9857 5.51397 24.1643 6.55066 23.7466 7.41028Z" fill="#D22527"/>
</svg>
