<svg width="252" height="40" viewBox="0 0 252 40" fill="none" xmlns="http://www.w3.org/2000/svg">
<g clip-path="url(#clip0_55_20)">
<path d="M111.574 10.1933C112.642 12.0523 114.342 13.414 116.24 13.9324C117.531 14.2852 118.843 14.2188 119.984 13.7543L123.331 19.6097C120.356 25.0703 115.951 33.1495 115.395 34.1212C114.035 36.4982 116.267 39.1372 116.363 39.2476L117.011 40L125.999 24.2785L134.988 39.9988L135.636 39.2463C135.733 39.136 137.965 36.4969 136.605 34.1196C136.05 33.149 131.643 25.0697 128.668 19.6085L132.016 13.7532C133.158 14.2176 134.468 14.284 135.76 13.9312C137.658 13.4135 139.358 12.0511 140.425 10.1916C142.43 6.68748 141.622 2.44061 138.625 0.726142C137.788 0.244424 136.86 0.000104482 135.868 0.000104569C135.323 0.000104617 134.757 0.0428563 134.218 0.226353C131.005 1.31959 129.36 3.94617 128.571 6.64225C128.538 6.75821 126.952 13.1815 126.067 14.5811C126.067 14.5811 126.04 14.6312 125.999 14.7063C125.959 14.6312 125.931 14.5811 125.931 14.5811C125.046 13.1815 123.461 6.75821 123.427 6.64225C122.64 3.94627 120.993 1.31897 117.781 0.226355C117.242 0.0428578 116.676 0.000106247 116.131 0.000106294C115.138 0.000106381 114.211 0.244426 113.374 0.726144C110.378 2.44247 109.571 6.68861 111.574 10.1933ZM132.147 5.45101C132.812 4.28962 133.881 3.41293 135 3.1084C135.295 3.029 135.585 2.98872 135.863 2.98872C136.328 2.98872 136.757 3.10159 137.136 3.31916C138.704 4.21455 139.016 6.63409 137.83 8.70883C137.155 9.88561 136.114 10.7382 134.978 11.0476C134.203 11.2572 133.453 11.1903 132.838 10.8392C131.272 9.94096 130.961 7.52328 132.147 5.45101ZM114.864 3.31916C115.245 3.10097 115.672 2.98811 116.137 2.98811C116.415 2.98811 116.706 3.029 117 3.10841C118.12 3.4122 119.188 4.289 119.853 5.45039C121.039 7.52328 120.729 9.94024 119.163 10.837C118.548 11.1885 117.797 11.2561 117.022 11.0454C115.886 10.7372 114.846 9.88458 114.171 8.70698C112.984 6.63285 113.296 4.21455 114.864 3.31916Z" fill="white"/>
</g>
<rect y="18" width="83" height="2" fill="white"/>
<rect x="169" y="17" width="83" height="2" fill="white"/>
<defs>
<clipPath id="clip0_55_20">
<rect width="40" height="40" fill="white" transform="translate(146 40) rotate(180)"/>
</clipPath>
</defs>
</svg>
