<svg width="34" height="33" viewBox="0 0 34 33" fill="none" xmlns="http://www.w3.org/2000/svg">
<g clip-path="url(#clip0_44_15)">
<path d="M31.1626 5.35729L26.8714 1.20665L17.9595 9.84207L21.4144 13.3052C20.8354 14.3028 19.5791 16.2138 17.4381 18.2918C15.2968 20.3702 13.3135 21.6034 12.2759 22.1742L8.7778 18.8224L0.00500488 27.2864L4.27278 31.4563C5.90421 33.0398 8.38651 33.4501 10.4497 32.4775C13.5981 30.9934 18.3496 28.2548 23.1069 23.6375C27.8644 19.0201 30.6857 14.4083 32.2148 11.3525C32.5772 10.6284 32.7531 9.85132 32.7531 9.07923C32.7531 7.71584 32.2041 6.36821 31.1626 5.35729ZM29.9148 10.2681C28.4714 13.1526 25.8049 17.509 21.2989 21.8825C16.7929 26.2559 12.3044 28.844 9.33255 30.2449C8.24908 30.7558 6.94239 30.5373 6.08407 29.7042L3.62077 27.2974L8.7842 22.3159L11.7642 25.1713L12.5615 24.8268C12.6911 24.7709 15.7747 23.4164 19.2465 20.0467C22.7206 16.6748 24.087 13.7072 24.1434 13.5825L24.4891 12.819L21.5486 9.87151L26.8732 4.71192L29.3558 7.11319C30.216 7.94926 30.4409 9.21694 29.9148 10.2681Z" fill="white"/>
</g>
<defs>
<clipPath id="clip0_44_15">
<rect width="34" height="33" fill="white"/>
</clipPath>
</defs>
</svg>
